<?xml version="1.0" encoding="iso-8859-1"?>
<!-- Uploaded to: SVG Repo, www.svgrepo.com, Generator: SVG Repo Mixer Tools -->
<svg height="800px" width="800px" version="1.1" id="Layer_1" xmlns="http://www.w3.org/2000/svg" xmlns:xlink="http://www.w3.org/1999/xlink" 
	 viewBox="0 0 392.663 392.663" xml:space="preserve">
<path style="fill:#56ACE0;" d="M113.519,224.711c-28.574,0-55.402,13.382-72.727,35.943c16.743,25.406,43.055,41.891,72.727,41.891
	s55.919-16.485,72.727-41.891C168.921,238.158,142.028,224.711,113.519,224.711z"/>
<path style="fill:#FFFFFF;" d="M113.519,90.311c-50.554,0-91.539,47.58-91.539,106.149c0,15.451,2.909,30.061,8.016,43.248
	c21.333-23.273,51.523-36.784,83.523-36.784s62.19,13.511,83.523,36.784c5.107-13.188,8.016-27.927,8.016-43.248
	C205.059,137.891,163.943,90.311,113.519,90.311z"/>
<path style="fill:#56ACE0;" d="M280.566,67.168c0,24.889,20.234,45.123,45.123,45.123s45.123-20.234,45.123-45.123
	s-20.234-45.123-45.123-45.123C300.8,22.044,280.566,42.279,280.566,67.168z"/>
<path style="fill:#FFC10D;" d="M325.689,280.695c-24.889,0-45.123,20.234-45.123,45.123s20.234,45.123,45.123,45.123
	s45.123-20.234,45.123-45.123C370.812,300.929,350.578,280.695,325.689,280.695z"/>
<path style="fill:#194F82;" d="M325.689,258.844c-21.786,0-41.115,10.537-53.333,26.634l-55.79-35.879
	c6.594-16.226,10.343-34.263,10.343-53.269s-3.685-37.042-10.343-53.269l55.79-35.879c12.218,16.162,31.547,26.634,53.333,26.634
	c36.913,0,66.909-29.996,66.909-66.909C392.598,30.061,362.602,0,325.689,0S258.78,29.996,258.78,66.909
	c0,7.24,1.228,14.287,3.426,20.881l-55.531,35.749c-20.493-33.293-54.626-55.143-93.22-55.143
	C50.877,68.525,0.065,125.931,0.065,196.461s50.812,127.935,113.455,127.935c38.529,0,72.727-21.851,93.22-55.143l55.467,35.62
	c-2.133,6.594-3.426,13.576-3.426,20.881c0,36.913,30.061,66.909,66.909,66.909c36.913,0,66.909-29.996,66.909-66.909
	C392.598,288.905,362.602,258.844,325.689,258.844z M370.812,67.168c0,24.889-20.234,45.123-45.123,45.123
	s-45.123-20.234-45.123-45.123s20.234-45.123,45.123-45.123C350.578,22.044,370.812,42.279,370.812,67.168z M113.519,302.61
	c-29.673,0-55.919-16.485-72.727-41.891c17.325-22.562,44.218-35.943,72.727-35.943c28.574,0,55.402,13.382,72.727,35.943
	C169.438,286.125,143.063,302.61,113.519,302.61z M113.519,202.925c-32,0-62.19,13.511-83.523,36.784
	c-5.172-13.188-8.145-27.798-8.145-43.248c0-58.57,41.115-106.149,91.539-106.149s91.669,47.58,91.669,106.149
	c0,15.451-2.909,30.061-8.016,43.248C175.709,216.566,145.39,202.925,113.519,202.925z M325.689,370.877
	c-24.889,0-45.123-20.234-45.123-45.123s20.234-45.123,45.123-45.123s45.123,20.234,45.123,45.123
	C370.812,350.642,350.578,370.877,325.689,370.877z"/>
<path style="fill:#FFC10D;" d="M113.519,131.232c-8.986,0-16.226,7.24-16.226,16.226s7.24,16.226,16.226,16.226
	s16.226-7.24,16.226-16.226S122.376,131.232,113.519,131.232z"/>
<path style="fill:#194F82;" d="M113.519,109.446c-20.945,0-38.012,17.067-38.012,38.012s17.067,38.012,38.012,38.012
	s38.012-17.067,38.012-38.012S134.465,109.446,113.519,109.446z M113.519,163.685c-8.986,0-16.226-7.24-16.226-16.226
	s7.24-16.226,16.226-16.226s16.226,7.24,16.226,16.226S122.376,163.685,113.519,163.685z"/>
</svg>